<svg width="715" height="548" viewBox="0 0 715 548" fill="none" xmlns="http://www.w3.org/2000/svg">
<g filter="url(#filter0_d_11_353)">
<path d="M286.04 335.963C520.392 394.864 352.074 391.417 458.181 501.111C564.288 610.804 636.958 469.772 643.544 272.763C650.13 75.7539 749.648 144.776 744.524 40.338C741.459 -22.1227 696.909 -110.843 696.909 -110.843L4.99993 -44.7202C4.99993 -44.7202 225.835 35.005 186.643 93.6525C147.451 152.3 51.6888 277.062 286.04 335.963Z" fill="url(#paint0_linear_11_353)" shape-rendering="crispEdges"/>
<path d="M286.04 335.963C520.392 394.864 352.074 391.417 458.181 501.111C564.288 610.804 636.958 469.772 643.544 272.763C650.13 75.7539 749.648 144.776 744.524 40.338C741.459 -22.1227 696.909 -110.843 696.909 -110.843L4.99993 -44.7202C4.99993 -44.7202 225.835 35.005 186.643 93.6525C147.451 152.3 51.6888 277.062 286.04 335.963Z" stroke="black" shape-rendering="crispEdges"/>
</g>
<defs>
<filter id="filter0_d_11_353" x="0.8302" y="-111.374" width="748.385" height="659.332" filterUnits="userSpaceOnUse" color-interpolation-filters="sRGB">
<feFlood flood-opacity="0" result="BackgroundImageFix"/>
<feColorMatrix in="SourceAlpha" type="matrix" values="0 0 0 0 0 0 0 0 0 0 0 0 0 0 0 0 0 0 127 0" result="hardAlpha"/>
<feOffset dy="4"/>
<feGaussianBlur stdDeviation="2"/>
<feComposite in2="hardAlpha" operator="out"/>
<feColorMatrix type="matrix" values="0 0 0 0 0 0 0 0 0 0 0 0 0 0 0 0 0 0 0.25 0"/>
<feBlend mode="normal" in2="BackgroundImageFix" result="effect1_dropShadow_11_353"/>
<feBlend mode="normal" in="SourceGraphic" in2="effect1_dropShadow_11_353" result="shape"/>
</filter>
<linearGradient id="paint0_linear_11_353" x1="444.93" y1="547.248" x2="-28.3923" y2="-406.662" gradientUnits="userSpaceOnUse">
<stop stop-color="#FFFBFB"/>
<stop offset="0.908756" stop-color="#E3E2E2" stop-opacity="0.276106"/>
<stop offset="1" stop-color="#D9D9D9" stop-opacity="0"/>
</linearGradient>
</defs>
</svg>
